ply
format ascii 1.0
comment Created by Blender 2.76 (sub 0) - www.blender.org, source file: ''
element vertex 507
property float x
property float y
property float z
element face 968
property list uchar uint vertex_indices
end_header
2.736282 1.802429 -1.845779
2.705032 1.794617 -1.923904
2.767532 1.872742 -1.994217
1.767532 1.872742 -1.994217
1.830032 1.794617 -1.923904
1.798782 1.802429 -1.845779
2.830032 1.888367 -1.845779
2.814407 1.982117 -2.033279
1.720657 1.982117 -2.033279
1.705032 1.888367 -1.845779
2.619095 1.841492 -2.056717
2.619095 1.943054 -2.111404
1.915970 1.943054 -2.111404
1.915970 1.841492 -2.056717
2.619095 1.778992 -1.955154
1.915970 1.778992 -1.955154
2.540970 1.763367 -1.923904
2.470657 1.818054 -1.994217
2.064407 1.818054 -1.994217
1.994095 1.763367 -1.923904
2.423782 1.911804 -2.033279
2.111282 1.911804 -2.033279
2.408157 1.818054 -1.845779
2.345657 1.903992 -1.845779
2.126907 1.818054 -1.845779
2.509720 1.763367 -1.845779
2.025345 1.763367 -1.845779
2.540970 1.763367 -1.759842
2.470657 1.818054 -1.697342
2.064407 1.818054 -1.697342
1.994095 1.763367 -1.759842
2.423782 1.911804 -1.650467
2.189407 1.903992 -1.845779
2.619095 1.841492 -1.634842
2.619095 1.943054 -1.572342
1.915970 1.841492 -1.634842
2.111282 1.911804 -1.650467
2.619095 1.778992 -1.728592
1.915970 1.778992 -1.728592
2.705032 1.794617 -1.759842
2.767532 1.872742 -1.697342
1.830032 1.794617 -1.759842
2.814407 1.982117 -1.650467
1.767532 1.872742 -1.697342
1.915970 1.943054 -1.572342
2.892532 1.997742 -1.845779
1.720657 1.982117 -1.650467
2.712845 1.778992 -1.752029
2.744095 1.786804 -1.845779
1.790970 1.786804 -1.845779
2.619095 1.755554 -1.712967
1.822220 1.778992 -1.752029
2.533157 1.739929 -1.752029
1.915970 1.755554 -1.712967
2.494095 1.739929 -1.845779
2.001907 1.739929 -1.752029
2.533157 1.739929 -1.931717
2.001907 1.739929 -1.931717
2.619095 1.755554 -1.970779
1.915970 1.755554 -1.970779
2.712845 1.778992 -1.931717
1.822220 1.778992 -1.931717
2.619095 1.732117 -1.845779
1.915970 1.732117 -1.845779
2.040970 1.739929 -1.845779
2.431595 1.927429 -3.017654
2.267532 1.919617 -3.033279
2.267532 1.982117 -3.072342
2.103470 1.927429 -3.017654
2.087845 2.005554 -3.056717
2.501907 1.927429 -3.002029
2.447220 2.005554 -3.056717
2.033157 1.927429 -3.002029
1.939407 2.036804 -3.033279
2.634720 2.028992 -2.978592
2.533157 1.896179 -2.908279
2.001907 1.896179 -2.908279
1.900345 2.028992 -2.978592
2.619095 1.989929 -2.783279
2.517532 1.872742 -2.791092
2.017532 1.872742 -2.791092
1.915970 1.989929 -2.783279
2.580032 1.989929 -2.525467
2.478470 1.849304 -2.533279
2.056595 1.849304 -2.533279
1.955032 1.989929 -2.525467
2.470657 1.997742 -2.275467
2.705032 2.028992 -2.228592
2.665970 1.888367 -2.134842
1.869095 1.888367 -2.134842
1.830032 2.028992 -2.228592
2.064407 1.997742 -2.275467
2.900345 2.021179 -2.127029
2.884720 1.935242 -2.033279
1.634720 2.021179 -2.127029
3.095657 2.114929 -1.939529
2.994095 1.958679 -1.884842
1.540970 1.958679 -1.884842
1.439407 2.114929 -1.939529
3.126907 1.966492 -1.658279
3.009720 1.903992 -1.712967
1.408157 1.966492 -1.658279
2.978470 1.935242 -1.603592
2.955032 1.833679 -1.673904
1.556595 1.935242 -1.603592
1.525345 1.903992 -1.712967
2.759720 1.872742 -1.486404
2.705032 1.763367 -1.541092
1.775345 1.872742 -1.486404
1.580032 1.833679 -1.673904
2.587845 1.825867 -1.330154
2.580032 1.724304 -1.447342
1.955032 1.724304 -1.447342
1.947220 1.825867 -1.330154
2.423782 1.802429 -1.369217
2.470657 1.708679 -1.470779
2.111282 1.802429 -1.369217
2.330032 1.810242 -1.595779
2.369095 1.716492 -1.658279
2.205032 1.810242 -1.595779
2.064407 1.708679 -1.470779
2.267532 1.818054 -1.658279
2.267532 1.739929 -1.736404
2.165970 1.716492 -1.658279
2.517532 1.802429 -1.619217
2.017532 1.802429 -1.619217
2.103470 1.786804 -1.673904
2.595657 1.818054 -1.611404
1.939407 1.818054 -1.611404
1.830032 1.763367 -1.541092
1.837845 1.841492 -1.650467
2.697220 1.841492 -1.650467
1.665970 1.896179 -1.712967
2.869095 1.896179 -1.712967
1.626907 1.911804 -1.791092
2.908157 1.911804 -1.791092
1.642532 1.911804 -1.900467
2.892532 1.911804 -1.900467
1.650345 1.935242 -2.033279
1.775345 1.888367 -2.025467
2.759720 1.888367 -2.025467
1.892532 1.857117 -2.072342
2.392532 1.747742 -2.189529
2.642532 1.857117 -2.072342
2.142532 1.747742 -2.189529
2.064407 1.818054 -1.994217
2.470657 1.818054 -1.994217
2.431595 1.810242 -1.947342
2.267532 1.833679 -2.041092
2.103470 1.810242 -1.947342
2.392532 1.794617 -1.783279
2.142532 1.794617 -1.783279
2.267532 1.794617 -1.877029
2.400345 1.802429 -1.877029
2.330032 1.864929 -2.970779
2.267532 1.872742 -2.978592
2.205032 1.864929 -2.970779
2.384720 1.849304 -2.923904
2.150345 1.849304 -2.923904
2.158157 1.825867 -2.806717
2.345657 1.810242 -2.533279
2.384720 1.825867 -2.775467
2.150345 1.825867 -2.775467
2.189407 1.810242 -2.533279
2.376907 1.825867 -2.806717
2.267532 1.818054 -2.416092
2.267532 1.810242 -2.533279
2.181595 1.818054 -2.377029
2.267532 1.825867 -2.767654
2.267532 1.825867 -2.853592
2.392532 1.810242 -2.314529
2.400345 1.763367 -2.314529
2.361282 1.778992 -2.361404
2.173782 1.778992 -2.361404
2.134720 1.763367 -2.314529
2.142532 1.810242 -2.314529
2.369095 1.818054 -2.236404
2.376907 1.778992 -2.220779
2.158157 1.778992 -2.220779
2.165970 1.818054 -2.236404
2.306595 1.778992 -2.212967
2.228470 1.778992 -2.212967
2.267532 1.818054 -2.228592
2.267532 1.763367 -2.275467
2.267532 1.810242 -2.283279
2.353470 1.818054 -2.377029
2.267532 1.778992 -2.408279
2.345657 1.755554 -2.337967
2.267532 1.755554 -2.377029
2.267532 1.732117 -2.291092
2.314407 1.747742 -2.236404
2.220657 1.747742 -2.236404
2.361282 1.747742 -2.244217
2.173782 1.747742 -2.244217
2.376907 1.732117 -2.314529
2.189407 1.755554 -2.337967
2.158157 1.732117 -2.314529
2.431595 1.849304 -2.330154
2.103470 1.849304 -2.330154
2.447220 1.849304 -2.400467
2.087845 1.849304 -2.400467
2.525345 2.005554 -2.400467
2.009720 2.005554 -2.400467
2.501907 2.005554 -2.337967
2.033157 2.005554 -2.337967
2.267532 1.841492 -2.861404
2.361282 1.833679 -2.830154
2.173782 1.833679 -2.830154
2.361282 1.849304 -2.908279
2.173782 1.849304 -2.908279
2.314407 1.872742 -2.955154
2.220657 1.872742 -2.955154
2.314407 1.927429 -2.939529
2.267532 1.927429 -2.947342
2.267532 1.872742 -2.962967
2.361282 1.919617 -2.900467
2.173782 1.919617 -2.900467
2.361282 1.896179 -2.837967
2.173782 1.896179 -2.837967
2.267532 1.903992 -2.869217
2.220657 1.927429 -2.939529
2.455032 1.786804 -1.931717
2.080032 1.786804 -1.931717
2.134720 1.802429 -1.877029
2.439407 1.778992 -1.869217
2.095657 1.778992 -1.869217
2.447220 1.778992 -1.791092
2.478470 1.778992 -1.712967
2.056595 1.778992 -1.712967
2.494095 1.778992 -1.978592
2.642532 1.818054 -2.025467
1.892532 1.818054 -2.025467
2.744095 1.841492 -1.986404
1.790970 1.841492 -1.986404
2.845657 1.880554 -1.892654
1.689407 1.880554 -1.892654
2.853470 1.872742 -1.798904
1.681595 1.872742 -1.798904
2.830032 1.864929 -1.736404
2.689407 1.786804 -1.689529
1.705032 1.864929 -1.736404
2.603470 1.802429 -1.658279
1.931595 1.802429 -1.658279
2.540970 1.786804 -1.666092
1.994095 1.786804 -1.666092
2.431595 1.786804 -1.673904
2.501907 1.802429 -1.728592
2.548782 1.794617 -1.689529
1.986282 1.794617 -1.689529
2.603470 1.810242 -1.681717
2.681595 1.810242 -1.697342
1.845657 1.786804 -1.689529
1.853470 1.810242 -1.697342
2.798782 1.880554 -1.752029
1.736282 1.880554 -1.752029
2.822220 1.888367 -1.806717
2.814407 1.888367 -1.877029
1.720657 1.888367 -1.877029
2.728470 1.857117 -1.970779
2.642532 1.833679 -2.002029
1.892532 1.833679 -2.002029
2.509720 1.802429 -1.962967
2.040970 1.778992 -1.978592
2.025345 1.802429 -1.962967
2.462845 1.802429 -1.791092
2.072220 1.802429 -1.791092
2.087845 1.778992 -1.791092
2.462845 1.810242 -1.861404
2.072220 1.810242 -1.861404
2.470657 1.810242 -1.916092
2.064407 1.810242 -1.916092
2.376907 1.950867 -1.627029
2.158157 1.950867 -1.627029
2.462845 1.943054 -1.423904
2.072220 1.943054 -1.423904
2.603470 1.966492 -1.400467
2.751907 2.005554 -1.533279
1.931595 1.966492 -1.400467
2.947220 2.068054 -1.634842
1.783157 2.005554 -1.533279
3.064407 2.099304 -1.681717
1.470657 2.099304 -1.681717
3.040970 2.185242 -1.923904
2.869095 2.146179 -2.087967
1.665970 2.146179 -2.087967
2.705032 2.091492 -2.181717
1.830032 2.091492 -2.181717
2.267532 2.278992 -2.572342
2.447220 2.302429 -2.502029
2.392532 2.200867 -2.627029
2.267532 2.239929 -2.658279
2.142532 2.200867 -2.627029
2.408157 2.193054 -2.845779
2.267532 2.216492 -2.892654
2.126907 2.193054 -2.845779
2.431595 2.122742 -3.033279
2.267532 2.099304 -3.064529
2.103470 2.122742 -3.033279
2.595657 2.036804 -3.033279
2.595657 2.161804 -3.002029
1.939407 2.161804 -3.002029
2.556595 2.177429 -2.798904
1.978470 2.177429 -2.798904
2.517532 2.169617 -2.587967
2.017532 2.169617 -2.587967
2.033157 2.153992 -2.439529
2.087845 2.302429 -2.502029
2.486282 2.130554 -2.369217
2.478470 2.091492 -2.314529
2.048782 2.130554 -2.369217
2.501907 2.153992 -2.439529
2.470657 2.060242 -2.259842
2.064407 2.060242 -2.259842
2.603470 3.224304 -2.033279
2.611282 3.099304 -2.236404
2.267532 3.232117 -2.283279
1.931595 3.224304 -2.033279
2.267532 3.388367 -2.017654
2.564407 2.825867 -2.400467
2.267532 2.911804 -2.470779
1.923782 3.099304 -2.236404
2.478470 2.396179 -2.478592
2.056595 2.396179 -2.478592
1.970657 2.825867 -2.400467
2.267532 2.372742 -2.548904
3.001907 2.489929 -2.134842
1.533157 2.489929 -2.134842
1.494095 2.185242 -1.923904
2.728470 3.263367 -1.650467
1.806595 3.263367 -1.650467
2.267532 3.411804 -1.525467
2.720657 2.325867 -1.236404
2.720657 2.630554 -1.158279
2.267532 2.638367 -1.103592
1.814407 2.325867 -1.236404
2.267532 2.271179 -1.189529
2.720657 2.943054 -1.220779
1.814407 2.943054 -1.220779
1.814407 2.630554 -1.158279
2.267532 3.107117 -1.189529
2.994095 2.224304 -1.681717
1.540970 2.224304 -1.681717
1.587845 2.068054 -1.634842
2.900345 2.278992 -1.634842
3.064407 2.435242 -1.525467
1.470657 2.435242 -1.525467
1.634720 2.278992 -1.634842
2.908157 2.505554 -1.384842
3.064407 2.677429 -1.470779
1.470657 2.677429 -1.470779
1.626907 2.505554 -1.384842
2.908157 2.755554 -1.337967
3.064407 2.919617 -1.548904
1.470657 2.919617 -1.548904
1.626907 2.755554 -1.337967
2.884720 3.146179 -1.759842
2.908157 3.005554 -1.408279
1.650345 3.146179 -1.759842
1.494095 2.997742 -1.822342
1.626907 3.005554 -1.408279
2.728470 2.130554 -1.564529
1.806595 2.130554 -1.564529
2.267532 1.989929 -1.517654
2.267532 1.958679 -1.681717
3.119095 2.505554 -1.853592
3.126907 2.607117 -1.767654
1.408157 2.607117 -1.767654
1.415970 2.505554 -1.853592
3.087845 2.763367 -1.759842
1.447220 2.763367 -1.759842
2.697220 2.771179 -2.283279
2.673782 2.411804 -2.259842
1.861282 2.411804 -2.259842
2.861282 2.724304 -2.212967
1.673782 2.724304 -2.212967
2.056595 2.091492 -2.314529
2.908157 2.989929 -2.095779
2.751907 3.107117 -2.064529
1.626907 2.989929 -2.095779
1.837845 2.771179 -2.283279
1.783157 3.107117 -2.064529
3.158157 2.794617 -1.681717
3.189407 2.778992 -1.728592
3.283157 2.849304 -1.673904
1.376907 2.794617 -1.681717
1.244095 2.872742 -1.611404
1.251907 2.849304 -1.673904
3.290970 2.872742 -1.611404
3.455032 2.950867 -1.650467
1.080032 2.950867 -1.650467
3.533157 2.966492 -1.798904
3.619095 2.982117 -1.767654
1.033157 2.982117 -1.580154
0.915970 2.982117 -1.767654
3.478470 2.966492 -2.009842
3.548782 2.989929 -2.033279
1.001907 2.966492 -1.798904
0.986282 2.989929 -2.033279
3.298782 2.864929 -2.127029
3.306595 2.888367 -2.189529
1.056595 2.966492 -2.009842
1.228470 2.888367 -2.189529
3.095657 2.693054 -2.158279
1.439407 2.693054 -2.158279
1.236282 2.864929 -2.127029
3.306595 2.927429 -2.087967
3.150345 2.771179 -2.111404
1.384720 2.771179 -2.111404
1.228470 2.927429 -2.087967
3.455032 3.005554 -1.994217
1.080032 3.005554 -1.994217
3.501907 3.005554 -1.837967
1.033157 3.005554 -1.837967
3.439407 2.997742 -1.728592
1.095657 2.997742 -1.728592
3.290970 2.919617 -1.744217
1.244095 2.919617 -1.744217
3.212845 2.849304 -1.783279
1.322220 2.849304 -1.783279
1.345657 2.778992 -1.728592
2.986282 2.732117 -2.111404
2.994095 2.630554 -2.087967
1.540970 2.630554 -2.087967
3.040970 2.685242 -2.228592
1.494095 2.685242 -2.228592
1.548782 2.732117 -2.111404
3.111282 2.771179 -1.798904
1.423782 2.771179 -1.798904
3.080032 2.833679 -2.103592
1.455032 2.833679 -2.103592
2.986282 2.747742 -2.048904
1.548782 2.747742 -2.048904
1.423782 2.833679 -2.072342
3.025345 2.833679 -1.994217
3.111282 2.833679 -2.072342
1.509720 2.833679 -1.994217
3.064407 2.771179 -1.884842
1.470657 2.771179 -1.884842
1.431595 2.833679 -1.916092
3.103470 2.833679 -1.916092
3.158157 2.825867 -1.845779
1.376907 2.825867 -1.845779
3.158157 2.880554 -1.853592
1.376907 2.880554 -1.853592
3.111282 2.880554 -1.916092
3.033157 2.880554 -1.994217
1.501907 2.880554 -1.994217
3.087845 2.833679 -2.002029
3.095657 2.880554 -2.009842
1.447220 2.833679 -2.002029
3.119095 2.880554 -2.072342
1.439407 2.880554 -2.009842
3.080032 2.880554 -2.103592
1.455032 2.880554 -2.103592
3.150345 2.825867 -2.103592
1.384720 2.825867 -2.103592
3.220657 2.903992 -1.798904
1.314407 2.903992 -1.798904
3.306595 2.974304 -1.759842
1.228470 2.974304 -1.759842
3.455032 3.044617 -1.744217
1.080032 3.044617 -1.744217
3.525345 3.052429 -1.845779
3.478470 3.044617 -2.002029
1.056595 3.044617 -2.002029
3.314407 2.982117 -2.087967
1.220657 2.982117 -2.087967
3.205032 2.896179 -2.025467
3.158157 2.888367 -1.978592
1.415970 2.880554 -2.072342
1.376907 2.888367 -1.978592
3.267532 2.927429 -1.962967
3.228470 2.911804 -1.916092
1.330032 2.896179 -2.025467
1.306595 2.911804 -1.916092
3.322220 2.943054 -1.900467
1.212845 2.943054 -1.900467
1.267532 2.927429 -1.962967
3.376907 2.950867 -1.877029
3.353470 2.950867 -1.814529
1.251907 2.935242 -1.853592
1.181595 2.950867 -1.814529
3.283157 2.935242 -1.853592
1.423782 2.880554 -1.916092
1.158157 2.950867 -1.877029
1.009720 3.052429 -1.845779
3.056595 2.888367 -2.212967
1.478470 2.888367 -2.212967
3.306595 3.052429 -2.173904
1.228470 3.052429 -2.173904
3.580032 3.091492 -2.033279
3.634720 3.060242 -1.791092
0.900345 3.060242 -1.791092
3.517532 3.107117 -1.619217
1.017532 3.107117 -1.619217
3.501907 2.982117 -1.580154
3.290970 3.044617 -1.650467
1.244095 3.044617 -1.650467
3.126907 2.943054 -1.705154
1.408157 2.943054 -1.705154
0.955032 3.091492 -2.033279
3.040970 2.997742 -1.822342
1.642532 1.997742 -1.845779
2.033157 1.802429 -1.728592
1.931595 1.810242 -1.681717
1.712845 1.888367 -1.806717
1.806595 1.857117 -1.970779
3 0 1 2
3 3 4 5
3 6 2 7
3 8 3 9
3 2 10 11
3 12 13 3
3 1 14 10
3 13 15 4
3 14 16 17
3 18 19 15
3 10 17 20
3 21 18 13
3 22 23 20
3 24 18 21
3 16 25 22
3 24 26 19
3 25 27 28
3 29 30 26
3 28 31 23
3 29 24 32
3 33 34 31
3 35 29 36
3 37 33 28
3 38 30 29
3 39 40 33
3 41 38 35
3 40 42 34
3 43 35 44
3 6 45 42
3 9 43 46
3 0 6 40
3 5 41 43
3 39 47 48
3 41 5 49
3 37 50 47
3 38 41 51
3 27 52 50
3 30 38 53
3 25 54 52
3 26 30 55
3 25 16 56
3 57 19 26
3 16 14 58
3 59 15 19
3 14 1 60
3 61 4 15
3 1 0 48
3 49 5 4
3 62 60 48
3 49 61 63
3 58 60 62
3 63 61 59
3 62 56 58
3 59 57 63
3 62 54 56
3 57 64 63
3 62 52 54
3 64 55 63
3 62 50 52
3 55 53 63
3 62 47 50
3 53 51 63
3 62 48 47
3 51 49 63
3 65 66 67
3 68 69 67
3 70 65 71
3 72 73 69
3 74 75 70
3 72 76 77
3 78 79 75
3 76 80 81
3 82 83 79
3 80 84 85
3 86 87 88
3 89 90 91
3 92 93 88
3 94 90 89
3 92 95 96
3 97 98 94
3 99 100 96
3 101 98 97
3 102 103 100
3 104 101 105
3 106 107 103
3 108 104 109
3 106 110 111
3 112 113 108
3 114 115 111
3 116 113 112
3 117 118 115
3 119 116 120
3 121 122 118
3 121 119 123
3 124 115 118
3 125 126 123
3 124 127 111
3 112 128 125
3 107 111 127
3 129 130 128
3 103 107 131
3 109 132 130
3 100 103 133
3 105 134 132
3 96 100 135
3 97 136 134
3 93 96 137
3 138 139 136
3 88 93 140
3 89 141 139
3 142 88 143
3 144 145 141
3 146 147 148
3 148 149 145
3 118 122 150
3 123 126 151
3 150 122 152
3 152 122 151
3 147 153 152
3 149 148 152
3 154 155 66
3 66 155 156
3 157 154 65
3 68 156 158
3 157 70 75
3 158 159 76
3 83 160 161
3 162 163 84
3 164 75 79
3 80 76 159
3 165 166 160
3 165 167 163
3 160 166 168
3 163 162 168
3 164 161 168
3 159 169 168
3 170 171 172
3 173 174 175
3 176 177 171
3 174 178 179
3 180 177 176
3 181 182 179
3 183 180 182
3 183 184 182
3 185 172 186
3 167 165 186
3 172 187 188
3 173 186 188
3 183 189 190
3 191 189 183
3 180 190 192
3 193 191 181
3 192 194 171
3 193 178 174
3 171 194 187
3 195 196 174
3 194 192 190
3 196 189 191
3 189 188 187
3 195 188 189
3 182 176 142
3 144 179 182
3 176 170 197
3 198 175 179
3 185 199 197
3 167 175 198
3 160 83 199
3 163 167 200
3 201 199 83
3 202 85 84
3 203 197 199
3 204 202 200
3 86 142 197
3 198 144 91
3 169 205 206
3 169 159 207
3 157 164 206
3 207 159 158
3 154 157 208
3 209 158 156
3 155 154 210
3 211 156 155
3 210 212 213
3 211 214 213
3 210 208 215
3 216 209 211
3 208 206 217
3 218 207 209
3 205 219 217
3 205 207 218
3 219 213 212
3 220 213 219
3 217 212 215
3 216 220 218
3 153 147 221
3 222 149 223
3 150 153 224
3 225 223 151
3 150 226 227
3 151 126 228
3 146 229 221
3 145 149 222
3 146 143 230
3 231 141 145
3 143 140 232
3 233 139 141
3 140 137 234
3 235 136 139
3 137 135 236
3 237 134 136
3 133 238 236
3 132 134 237
3 131 239 238
3 130 132 240
3 131 127 241
3 242 128 130
3 127 124 243
3 244 125 128
3 124 245 227
3 228 126 125
3 227 246 247
3 228 244 248
3 241 243 247
3 248 244 242
3 241 249 250
3 242 251 252
3 239 250 253
3 251 240 254
3 236 238 253
3 254 240 237
3 236 255 256
3 237 235 257
3 232 234 256
3 257 235 233
3 232 258 259
3 233 231 260
3 230 259 261
3 231 262 263
3 221 229 261
3 263 262 222
3 227 226 264
3 265 266 228
3 226 224 267
3 268 225 266
3 224 221 269
3 270 222 225
3 121 117 271
3 272 119 121
3 117 114 273
3 274 116 119
3 110 275 273
3 113 116 274
3 106 276 275
3 108 113 277
3 102 278 276
3 104 108 279
3 102 99 280
3 281 101 104
3 95 282 280
3 98 101 281
3 95 92 283
3 284 94 98
3 92 87 285
3 286 90 94
3 287 288 289
3 287 290 291
3 290 289 292
3 290 293 294
3 293 292 295
3 293 296 297
3 71 67 296
3 296 67 69
3 298 71 295
3 297 69 73
3 74 298 299
3 300 73 77
3 78 74 301
3 302 77 81
3 301 292 289
3 291 294 302
3 299 295 292
3 300 302 294
3 303 289 288
3 304 305 306
3 82 78 303
3 304 81 85
3 307 308 203
3 309 202 204
3 310 307 201
3 305 85 202
3 203 308 311
3 204 91 312
3 311 285 87
3 312 91 90
3 313 314 315
3 316 317 315
3 314 318 319
3 320 315 319
3 319 318 321
3 322 323 319
3 324 321 288
3 306 322 324
3 288 321 307
3 306 305 309
3 282 283 325
3 326 284 327
3 328 313 317
3 329 330 317
3 331 332 333
3 334 335 333
3 333 332 336
3 337 338 333
3 339 336 328
3 329 337 339
3 278 280 340
3 341 281 342
3 343 340 344
3 345 341 346
3 347 344 348
3 349 345 350
3 351 348 352
3 353 349 354
3 355 356 352
3 357 358 353
3 328 336 356
3 359 337 329
3 336 332 351
3 354 338 337
3 332 331 347
3 350 334 338
3 331 360 343
3 346 361 334
3 278 343 360
3 342 279 361
3 360 331 335
3 361 362 335
3 271 273 275
3 277 274 272
3 271 276 360
3 361 279 272
3 363 271 362
3 362 272 363
3 282 364 340
3 327 281 341
3 364 365 344
3 345 366 367
3 365 368 348
3 349 369 366
3 352 348 368
3 353 358 369
3 318 370 371
3 323 322 372
3 371 370 373
3 372 326 374
3 283 285 371
3 372 286 284
3 285 308 307
3 309 375 286
3 307 321 371
3 372 322 309
3 285 311 308
3 375 312 286
3 376 377 355
3 378 358 357
3 355 377 313
3 357 329 316
3 370 377 376
3 379 374 378
3 314 377 370
3 320 323 379
3 313 377 314
3 320 380 316
3 381 382 383
3 384 385 386
3 387 383 388
3 389 386 385
3 388 390 391
3 389 392 393
3 390 394 395
3 396 393 397
3 394 398 399
3 400 397 401
3 399 398 402
3 403 404 401
3 398 405 406
3 407 408 404
3 394 409 405
3 408 410 400
3 411 409 394
3 412 396 400
3 413 411 390
3 414 389 396
3 415 413 388
3 416 386 389
3 383 382 417
3 418 419 386
3 373 420 421
3 374 326 422
3 423 402 420
3 424 374 425
3 364 325 421
3 422 326 367
3 368 426 382
3 419 427 369
3 402 406 428
3 429 407 403
3 430 420 428
3 431 432 429
3 433 430 434
3 432 431 435
3 436 430 433
3 437 438 435
3 436 439 440
3 437 427 441
3 426 440 417
3 427 419 418
3 365 436 426
3 427 437 366
3 421 430 436
3 422 366 437
3 421 420 430
3 431 425 422
3 417 440 442
3 443 441 418
3 439 444 442
3 438 441 443
3 439 433 445
3 446 435 438
3 447 448 445
3 449 435 446
3 434 450 448
3 432 449 451
3 434 428 452
3 453 429 432
3 428 406 454
3 455 407 429
3 415 417 456
3 457 418 416
3 413 415 458
3 459 416 414
3 411 413 460
3 461 414 412
3 411 462 463
3 412 410 464
3 409 463 465
3 410 408 466
3 405 465 454
3 408 407 455
3 450 467 468
3 469 451 470
3 467 471 472
3 473 470 474
3 472 471 475
3 476 477 474
3 475 478 479
3 476 480 481
3 458 456 482
3 480 457 459
3 472 482 456
3 474 443 457
3 444 468 472
3 483 443 474
3 448 468 444
3 483 470 451
3 454 467 450
3 455 453 469
3 465 471 467
3 473 477 466
3 475 471 465
3 476 464 466
3 478 475 463
3 484 485 464
3 460 479 478
3 484 481 461
3 458 479 460
3 461 481 459
3 399 423 486
3 487 424 401
3 395 399 488
3 489 401 397
3 395 490 491
3 397 393 492
3 391 491 493
3 393 392 494
3 495 493 496
3 392 385 497
3 387 496 498
3 385 384 499
3 488 486 498
3 489 497 499
3 496 493 490
3 500 494 497
3 493 491 490
3 500 492 494
3 368 381 498
3 369 358 499
3 501 498 486
3 487 499 358
3 373 376 486
3 487 378 374
3 6 0 2
3 9 3 5
3 45 6 7
3 502 8 9
3 7 2 11
3 8 12 3
3 2 1 10
3 3 13 4
3 10 14 17
3 13 18 15
3 11 10 20
3 12 21 13
3 17 22 20
3 32 24 21
3 17 16 22
3 18 24 19
3 22 25 28
3 24 29 26
3 22 28 23
3 36 29 32
3 28 33 31
3 44 35 36
3 27 37 28
3 35 38 29
3 37 39 33
3 43 41 35
3 33 40 34
3 46 43 44
3 40 6 42
3 502 9 46
3 39 0 40
3 9 5 43
3 0 39 48
3 51 41 49
3 39 37 47
3 53 38 51
3 37 27 50
3 55 30 53
3 27 25 52
3 64 26 55
3 54 25 56
3 64 57 26
3 56 16 58
3 57 59 19
3 58 14 60
3 59 61 15
3 60 1 48
3 61 49 4
3 71 65 67
3 66 68 67
3 298 70 71
3 68 72 69
3 298 74 70
3 73 72 77
3 74 78 75
3 77 76 81
3 78 82 79
3 81 80 85
3 142 86 88
3 144 89 91
3 87 92 88
3 138 94 89
3 93 92 96
3 138 97 94
3 95 99 96
3 105 101 97
3 99 102 100
3 109 104 105
3 102 106 103
3 129 108 109
3 107 106 111
3 129 112 108
3 110 114 111
3 120 116 112
3 114 117 115
3 123 119 120
3 117 121 118
3 122 121 123
3 245 124 118
3 120 125 123
3 115 124 111
3 120 112 125
3 131 107 127
3 112 129 128
3 133 103 131
3 129 109 130
3 135 100 133
3 109 105 132
3 137 96 135
3 105 97 134
3 140 93 137
3 97 138 136
3 143 88 140
3 138 89 139
3 146 142 143
3 89 144 141
3 142 146 148
3 144 148 145
3 245 118 150
3 122 123 151
3 153 150 152
3 223 152 151
3 148 147 152
3 223 149 152
3 65 154 66
3 68 66 156
3 70 157 65
3 72 68 158
3 164 157 75
3 72 158 76
3 79 83 161
3 80 162 84
3 161 164 79
3 162 80 159
3 185 165 160
3 166 165 163
3 161 160 168
3 166 163 168
3 169 164 168
3 162 159 168
3 185 170 172
3 167 173 175
3 170 176 171
3 175 174 179
3 182 180 176
3 178 181 179
3 184 183 182
3 181 183 182
3 165 185 186
3 173 167 186
3 186 172 188
3 195 173 188
3 180 183 190
3 181 191 183
3 177 180 192
3 178 193 181
3 177 192 171
3 196 193 174
3 172 171 187
3 173 195 174
3 189 194 190
3 193 196 191
3 194 189 187
3 196 195 189
3 148 182 142
3 148 144 182
3 142 176 197
3 144 198 179
3 170 185 197
3 200 167 198
3 185 160 199
3 84 163 200
3 82 201 83
3 200 202 84
3 201 203 199
3 198 204 200
3 203 86 197
3 204 198 91
3 164 169 206
3 205 169 207
3 208 157 206
3 209 207 158
3 210 154 208
3 211 209 156
3 214 155 210
3 214 211 155
3 214 210 213
3 220 211 213
3 212 210 215
3 220 216 211
3 215 208 217
3 216 218 209
3 206 205 217
3 219 205 218
3 217 219 212
3 218 220 219
3 224 153 221
3 225 222 223
3 226 150 224
3 266 225 151
3 245 150 227
3 266 151 228
3 147 146 221
3 262 145 222
3 229 146 230
3 262 231 145
3 230 143 232
3 231 233 141
3 232 140 234
3 233 235 139
3 234 137 236
3 235 237 136
3 135 133 236
3 240 132 237
3 133 131 238
3 251 130 240
3 239 131 241
3 251 242 130
3 241 127 243
3 242 244 128
3 243 124 227
3 244 228 125
3 243 227 247
3 503 228 248
3 249 241 247
3 504 248 242
3 239 241 250
3 504 242 252
3 238 239 253
3 252 251 254
3 255 236 253
3 505 254 237
3 234 236 256
3 505 237 257
3 258 232 256
3 506 257 233
3 230 232 259
3 506 233 260
3 229 230 261
3 260 231 263
3 269 221 261
3 270 263 222
3 246 227 264
3 503 265 228
3 264 226 267
3 265 268 266
3 267 224 269
3 268 270 225
3 363 121 271
3 363 272 121
3 271 117 273
3 272 274 119
3 114 110 273
3 277 113 274
3 110 106 275
3 279 108 277
3 106 102 276
3 342 104 279
3 278 102 280
3 342 281 104
3 99 95 280
3 327 98 281
3 282 95 283
3 327 284 98
3 283 92 285
3 284 286 94
3 290 287 289
3 306 287 291
3 293 290 292
3 291 290 294
3 296 293 295
3 294 293 297
3 295 71 296
3 297 296 69
3 299 298 295
3 300 297 73
3 301 74 299
3 302 300 77
3 303 78 301
3 304 302 81
3 303 301 289
3 304 291 302
3 301 299 292
3 297 300 294
3 310 303 288
3 291 304 306
3 310 82 303
3 305 304 85
3 201 307 203
3 375 309 204
3 82 310 201
3 309 305 202
3 86 203 311
3 375 204 312
3 86 311 87
3 286 312 90
3 317 313 315
3 320 316 315
3 315 314 319
3 323 320 319
3 324 319 321
3 324 322 319
3 287 324 288
3 287 306 324
3 310 288 307
3 322 306 309
3 364 282 325
3 367 326 327
3 330 328 317
3 316 329 317
3 335 331 333
3 338 334 333
3 339 333 336
3 339 337 333
3 330 339 328
3 330 329 339
3 343 278 340
3 346 341 342
3 347 343 344
3 350 345 346
3 351 347 348
3 354 349 350
3 356 351 352
3 359 353 354
3 501 355 352
3 359 357 353
3 355 328 356
3 357 359 329
3 356 336 351
3 359 354 337
3 351 332 347
3 354 350 338
3 347 331 343
3 350 346 334
3 276 278 360
3 346 342 361
3 362 360 335
3 334 361 335
3 276 271 275
3 279 277 272
3 362 271 360
3 362 361 272
3 280 282 340
3 367 327 341
3 340 364 344
3 341 345 367
3 344 365 348
3 345 349 366
3 501 352 368
3 349 353 369
3 321 318 371
3 379 323 372
3 325 371 373
3 379 372 374
3 325 283 371
3 326 372 284
3 371 285 307
3 372 309 286
3 501 376 355
3 380 378 357
3 328 355 313
3 380 357 316
3 373 370 376
3 380 379 378
3 318 314 370
3 380 320 379
3 387 381 383
3 419 384 386
3 495 387 388
3 392 389 385
3 495 388 391
3 396 389 393
3 391 390 395
3 400 396 397
3 395 394 399
3 404 400 401
3 423 399 402
3 424 403 401
3 402 398 406
3 403 407 404
3 398 394 405
3 404 408 400
3 390 411 394
3 410 412 400
3 388 413 390
3 412 414 396
3 383 415 388
3 414 416 389
3 415 383 417
3 416 418 386
3 325 373 421
3 425 374 422
3 373 423 420
3 403 424 425
3 365 364 421
3 366 422 367
3 381 368 382
3 384 419 369
3 420 402 428
3 425 429 403
3 434 430 428
3 425 431 429
3 447 433 434
3 449 432 435
3 439 436 433
3 431 437 435
3 426 436 440
3 438 437 441
3 382 426 417
3 441 427 418
3 368 365 426
3 369 427 366
3 365 421 436
3 431 422 437
3 456 417 442
3 457 443 418
3 440 439 442
3 483 438 443
3 444 439 445
3 483 446 438
3 433 447 445
3 451 449 446
3 447 434 448
3 469 432 451
3 450 434 452
3 469 453 432
3 452 428 454
3 453 455 429
3 458 415 456
3 459 457 416
3 460 413 458
3 461 459 414
3 462 411 460
3 485 461 412
3 409 411 463
3 485 412 464
3 405 409 465
3 464 410 466
3 406 405 454
3 466 408 455
3 448 450 468
3 473 469 470
3 468 467 472
3 477 473 474
3 482 472 475
3 480 476 474
3 482 475 479
3 484 476 481
3 479 458 482
3 481 480 459
3 442 472 456
3 480 474 457
3 442 444 472
3 470 483 474
3 445 448 444
3 446 483 451
3 452 454 450
3 473 455 469
3 454 465 467
3 455 473 466
3 463 475 465
3 477 476 466
3 462 478 463
3 476 484 464
3 462 460 478
3 485 484 461
3 488 399 486
3 489 487 401
3 490 395 488
3 500 489 397
3 391 395 491
3 500 397 492
3 495 391 493
3 492 393 494
3 387 495 496
3 494 392 497
3 381 387 498
3 497 385 499
3 496 488 498
3 487 489 499
3 488 496 490
3 489 500 497
3 501 368 498
3 384 369 499
3 376 501 486
3 378 487 358
3 423 373 486
3 424 487 374
